<?xml version="1.0" encoding="UTF-8" standalone="no" ?>
<!DOCTYPE svg PUBLIC "-//W3C//DTD SVG 1.1//EN" "http://www.w3.org/Graphics/SVG/1.1/DTD/svg11.dtd">
<svg xmlns="http://www.w3.org/2000/svg" xmlns:xlink="http://www.w3.org/1999/xlink" version="1.1" width="1080" height="1080" viewBox="0 0 1080 1080" xml:space="preserve">
<desc>Created with Fabric.js 5.2.4</desc>
<defs>
</defs>
<g transform="matrix(1 0 0 1 540 540)" id="7008da7b-f83f-412a-880c-c1a8901671e9"  >
<rect style="stroke: none; stroke-width: 1; stroke-dasharray: none; stroke-linecap: butt; stroke-dashoffset: 0; stroke-linejoin: miter; stroke-miterlimit: 4; fill: rgb(255,255,255); fill-rule: nonzero; opacity: 1; visibility: hidden;" vector-effect="non-scaling-stroke"  x="-540" y="-540" rx="0" ry="0" width="1080" height="1080" />
</g>
<g transform="matrix(1 0 0 1 540 540)" id="ad15355e-b055-4dd4-8c67-56d9d2b02f44"  >
</g>
<g transform="matrix(1.88 0 0 1.88 540 540)"  >
<path style="stroke: none; stroke-width: 1; stroke-dasharray: none; stroke-linecap: butt; stroke-dashoffset: 0; stroke-linejoin: miter; stroke-miterlimit: 4; fill: rgb(0,0,0); fill-rule: nonzero; opacity: 1;"  transform=" translate(-288, -256)" d="M 400 0 C 382.3 0 368 14.3 368 32 C 368 49.7 382.3 64 400 64 L 428.8 64 L 319.4 151.5 L 211.2 70.4 C 199.5 61.60000000000001 183.39999999999998 61.900000000000006 172 71 L 12 199 C -1.8000000000000007 210 -4 230.2 7 244 C 18 257.8 38.2 260 52 249 L 192.6 136.5 L 300.8 217.6 C 312.5 226.4 328.6 226.1 340 217 L 480 105 L 480 144 C 480 161.7 494.3 176 512 176 C 529.7 176 544 161.7 544 144 L 544 32 C 544 14.3 529.7 0 512 0 L 400 0 z M 192 224 C 174.3 224 160 238.3 160 256 L 160 448 C 160 465.7 174.3 480 192 480 C 209.7 480 224 465.7 224 448 L 224 256 C 224 238.3 209.7 224 192 224 z M 64 320 C 46.3 320 32 334.3 32 352 L 32 448 C 32 465.7 46.3 480 64 480 C 81.7 480 96 465.7 96 448 L 96 352 C 96 334.3 81.7 320 64 320 z M 432 512 C 511.5290039756343 512 576 447.5290039756343 576 368 C 576 288.4709960243657 511.5290039756343 224 432 224 C 352.4709960243657 224 288 288.4709960243657 288 368 C 288 447.5290039756343 352.4709960243657 512 432 512 z M 457.4 342.6 C 448.51862173713073 332.7311051393678 434.9156188688625 328.5696883545423 422.0329000750721 331.78053280709673 C 409.15018128128173 334.99137725965124 399.0913772596512 345.05018128128177 395.8805328070967 357.93290007507215 C 392.66968835454225 370.81561886886254 396.83110513936776 384.41862173713076 406.7 393.3 C 415.58137826286924 403.16889486063224 429.18438113113746 407.33031164545775 442.06709992492785 404.1194671929033 C 454.94981871871823 400.9086227403488 465.00862274034876 390.84981871871827 468.21946719290327 377.9670999249279 C 471.4303116454577 365.0843811311375 467.2688948606322 351.48137826286927 457.4 342.6 z M 396.7 426 L 379.4 443.3 C 373.2 449.5 363 449.5 356.79999999999995 443.3 C 350.5999999999999 437.1 350.59999999999997 426.90000000000003 356.79999999999995 420.7 L 374 403.3 C 360.8 381.7 360.8 354.2 374 332.6 L 356.7 315.3 C 350.5 309.1 350.5 298.90000000000003 356.7 292.7 C 362.9 286.49999999999994 373.09999999999997 286.5 379.3 292.7 L 396.7 310 C 418.3 296.8 445.8 296.8 467.4 310 L 484.7 292.7 C 490.9 286.5 501.09999999999997 286.5 507.3 292.7 C 513.5 298.9 513.5 309.09999999999997 507.3 315.3 L 490 332.7 C 503.2 354.3 503.2 381.8 490 403.4 L 507.3 420.7 C 513.5 426.9 513.5 437.09999999999997 507.3 443.3 C 501.1 449.50000000000006 490.90000000000003 449.5 484.7 443.3 L 467.3 426 C 445.7 439.2 418.2 439.2 396.6 426 z" stroke-linecap="round" />
</g>
<g transform="matrix(1.88 0 0 1.88 540 540)"  >
<path style="stroke: none; stroke-width: 1; stroke-dasharray: none; stroke-linecap: butt; stroke-dashoffset: 0; stroke-linejoin: miter; stroke-miterlimit: 4; fill: rgb(176,54,195); fill-rule: nonzero; opacity: 1;"  transform=" translate(-288, -256)" d="M 400 0 C 382.3 0 368 14.3 368 32 C 368 49.7 382.3 64 400 64 L 428.8 64 L 319.4 151.5 L 211.2 70.4 C 199.5 61.60000000000001 183.39999999999998 61.900000000000006 172 71 L 12 199 C -1.8000000000000007 210 -4 230.2 7 244 C 18 257.8 38.2 260 52 249 L 192.6 136.5 L 300.8 217.6 C 312.5 226.4 328.6 226.1 340 217 L 480 105 L 480 144 C 480 161.7 494.3 176 512 176 C 529.7 176 544 161.7 544 144 L 544 32 C 544 14.3 529.7 0 512 0 L 400 0 z M 192 224 C 174.3 224 160 238.3 160 256 L 160 448 C 160 465.7 174.3 480 192 480 C 209.7 480 224 465.7 224 448 L 224 256 C 224 238.3 209.7 224 192 224 z M 64 320 C 46.3 320 32 334.3 32 352 L 32 448 C 32 465.7 46.3 480 64 480 C 81.7 480 96 465.7 96 448 L 96 352 C 96 334.3 81.7 320 64 320 z M 432 512 C 511.5290039756343 512 576 447.5290039756343 576 368 C 576 288.4709960243657 511.5290039756343 224 432 224 C 352.4709960243657 224 288 288.4709960243657 288 368 C 288 447.5290039756343 352.4709960243657 512 432 512 z M 457.4 342.6 C 448.51862173713073 332.7311051393678 434.9156188688625 328.5696883545423 422.0329000750721 331.78053280709673 C 409.15018128128173 334.99137725965124 399.0913772596512 345.05018128128177 395.8805328070967 357.93290007507215 C 392.66968835454225 370.81561886886254 396.83110513936776 384.41862173713076 406.7 393.3 C 415.58137826286924 403.16889486063224 429.18438113113746 407.33031164545775 442.06709992492785 404.1194671929033 C 454.94981871871823 400.9086227403488 465.00862274034876 390.84981871871827 468.21946719290327 377.9670999249279 C 471.4303116454577 365.0843811311375 467.2688948606322 351.48137826286927 457.4 342.6 z M 396.7 426 L 379.4 443.3 C 373.2 449.5 363 449.5 356.79999999999995 443.3 C 350.5999999999999 437.1 350.59999999999997 426.90000000000003 356.79999999999995 420.7 L 374 403.3 C 360.8 381.7 360.8 354.2 374 332.6 L 356.7 315.3 C 350.5 309.1 350.5 298.90000000000003 356.7 292.7 C 362.9 286.49999999999994 373.09999999999997 286.5 379.3 292.7 L 396.7 310 C 418.3 296.8 445.8 296.8 467.4 310 L 484.7 292.7 C 490.9 286.5 501.09999999999997 286.5 507.3 292.7 C 513.5 298.9 513.5 309.09999999999997 507.3 315.3 L 490 332.7 C 503.2 354.3 503.2 381.8 490 403.4 L 507.3 420.7 C 513.5 426.9 513.5 437.09999999999997 507.3 443.3 C 501.1 449.50000000000006 490.90000000000003 449.5 484.7 443.3 L 467.3 426 C 445.7 439.2 418.2 439.2 396.6 426 z" stroke-linecap="round" />
</g>
</svg>