<svg width="16" height="20" viewBox="0 0 16 20" fill="none" xmlns="http://www.w3.org/2000/svg">
<path d="M11.75 10H4.25V12.5H11.75V10ZM15.2266 4.10156L11.4023 0.273438C11.2266 0.0976562 10.9883 0 10.7383 0H10.5V5H15.5V4.76172C15.5 4.51562 15.4023 4.27734 15.2266 4.10156ZM9.25 5.3125V0H1.4375C0.917969 0 0.5 0.417969 0.5 0.9375V19.0625C0.5 19.582 0.917969 20 1.4375 20H14.5625C15.082 20 15.5 19.582 15.5 19.0625V6.25H10.1875C9.67188 6.25 9.25 5.82812 9.25 5.3125ZM3 2.8125C3 2.63984 3.13984 2.5 3.3125 2.5H6.4375C6.61016 2.5 6.75 2.63984 6.75 2.8125V3.4375C6.75 3.61016 6.61016 3.75 6.4375 3.75H3.3125C3.13984 3.75 3 3.61016 3 3.4375V2.8125ZM3 5.3125C3 5.13984 3.13984 5 3.3125 5H6.4375C6.61016 5 6.75 5.13984 6.75 5.3125V5.9375C6.75 6.11016 6.61016 6.25 6.4375 6.25H3.3125C3.13984 6.25 3 6.11016 3 5.9375V5.3125ZM13 17.1875C13 17.3602 12.8602 17.5 12.6875 17.5H9.5625C9.38984 17.5 9.25 17.3602 9.25 17.1875V16.5625C9.25 16.3898 9.38984 16.25 9.5625 16.25H12.6875C12.8602 16.25 13 16.3898 13 16.5625V17.1875ZM13 9.375V13.125C13 13.4703 12.7203 13.75 12.375 13.75H3.625C3.27969 13.75 3 13.4703 3 13.125V9.375C3 9.02969 3.27969 8.75 3.625 8.75H12.375C12.7203 8.75 13 9.02969 13 9.375Z" fill="#889EBE"/>
</svg>
