<svg width="24" height="24" viewBox="0 0 24 24" fill="none" xmlns="http://www.w3.org/2000/svg">
<g clip-path="url(#clip0_2217_276336)">
<path d="M22 1.33301H2C0.895833 1.33301 0 2.22884 0 3.33301V16.6663C0 17.7705 0.895833 18.6663 2 18.6663H10L9.33333 20.6663H6.33333C5.77917 20.6663 5.33333 21.1122 5.33333 21.6663C5.33333 22.2205 5.77917 22.6663 6.33333 22.6663H17.6667C18.2208 22.6663 18.6667 22.2205 18.6667 21.6663C18.6667 21.1122 18.2208 20.6663 17.6667 20.6663H14.6667L14 18.6663H22C23.1042 18.6663 24 17.7705 24 16.6663V3.33301C24 2.22884 23.1042 1.33301 22 1.33301ZM21.3333 15.9997H2.66667V3.99967H21.3333V15.9997Z" fill="#C05ECF"/>
</g>
<defs>
<clipPath id="clip0_2217_276336">
<rect width="24" height="24" fill="white"/>
</clipPath>
</defs>
</svg>
