<svg width="22" height="22" viewBox="0 0 22 22" fill="none" xmlns="http://www.w3.org/2000/svg">
<path d="M9.42969 1.91699L10.4703 0.876367C10.9109 0.435742 11.6234 0.435742 12.0594 0.876367L21.1719 9.98418C21.6125 10.4248 21.6125 11.1373 21.1719 11.5732L12.0594 20.6857C11.6188 21.1264 10.9063 21.1264 10.4703 20.6857L9.42969 19.6451C8.98438 19.1998 8.99375 18.4732 9.44844 18.0373L15.0969 12.6561H1.625C1.00156 12.6561 0.5 12.1545 0.5 11.5311V10.0311C0.5 9.40762 1.00156 8.90606 1.625 8.90606H15.0969L9.44844 3.5248C8.98906 3.08887 8.97969 2.3623 9.42969 1.91699Z" fill="#889EBE"/>
</svg>
