<svg width="40" height="40" viewBox="0 0 40 40" fill="none" xmlns="http://www.w3.org/2000/svg">
<path d="M21.5702 28.8639L20.5296 29.9045C20.089 30.3451 19.3765 30.3451 18.9405 29.9045L9.82803 20.7967C9.3874 20.3561 9.3874 19.6436 9.82803 19.2076L18.9405 10.0951C19.3812 9.65449 20.0937 9.65449 20.5296 10.0951L21.5702 11.1357C22.0155 11.5811 22.0062 12.3076 21.5515 12.7436L15.903 18.1248H29.3749C29.9983 18.1248 30.4999 18.6264 30.4999 19.2498V20.7498C30.4999 21.3732 29.9983 21.8748 29.3749 21.8748H15.903L21.5515 27.2561C22.0108 27.692 22.0202 28.4186 21.5702 28.8639Z" fill="#889EBE"/>
</svg>
