<svg width="33" height="32" viewBox="0 0 33 32" fill="none" xmlns="http://www.w3.org/2000/svg">
<g clip-path="url(#clip0_1978_33438)">
<path d="M29.5 16H24.5V12C24.5 9.79375 26.2938 8 28.5 8H29C29.8312 8 30.5 7.33125 30.5 6.5V3.5C30.5 2.66875 29.8312 2 29 2H28.5C22.975 2 18.5 6.475 18.5 12V27C18.5 28.6562 19.8438 30 21.5 30H29.5C31.1562 30 32.5 28.6562 32.5 27V19C32.5 17.3438 31.1562 16 29.5 16ZM11.5 16H6.5V12C6.5 9.79375 8.29375 8 10.5 8H11C11.8313 8 12.5 7.33125 12.5 6.5V3.5C12.5 2.66875 11.8313 2 11 2H10.5C4.975 2 0.5 6.475 0.5 12V27C0.5 28.6562 1.84375 30 3.5 30H11.5C13.1562 30 14.5 28.6562 14.5 27V19C14.5 17.3438 13.1562 16 11.5 16Z" fill="#6A2075"/>
</g>
<defs>
<clipPath id="clip0_1978_33438">
<rect width="32" height="32" fill="white" transform="translate(0.5)"/>
</clipPath>
</defs>
</svg>
